<?xml version="1.0" encoding="utf-8"?>
<!-- Generator: Adobe Illustrator 17.0.0, SVG Export Plug-In . SVG Version: 6.00 Build 0)  -->
<!DOCTYPE svg PUBLIC "-//W3C//DTD SVG 1.1//EN" "http://www.w3.org/Graphics/SVG/1.1/DTD/svg11.dtd">
<svg version="1.1" id="Слой_1" xmlns="http://www.w3.org/2000/svg" xmlns:xlink="http://www.w3.org/1999/xlink" x="0px" y="0px"
	 width="166.535px" height="41.261px" viewBox="0 0 166.535 41.261" enable-background="new 0 0 166.535 41.261"
	 xml:space="preserve">
<g>
	<g>
		<path fill="#FFFFFF" d="M3.052,20.779v-7.987h9.258V10.09H0v13.39h19.202v-2.701H3.052z M0,0.584v6.824h3.052V3.285h15.347V0.584
			H0z"/>
		<path fill="#FFFFFF" d="M37.118,9.812c-3.723-0.219-7.505-0.35-7.505-3.3c0-2.877,3.023-3.928,5.958-3.928
			c4.205,0,7.111,1.621,8.484,2.847l1.825-2.103C44.127,1.884,40.404,0,35.673,0c-4.103,0-9.112,1.577-9.112,6.79
			c0,5.301,5.607,5.651,10.557,5.958c3.884,0.292,7.389,0.818,7.389,4.249c0,3.081-3.227,4.483-7.111,4.483
			c-5.125,0-8.309-2.424-10.236-4.206l-1.854,2.103c2.482,2.278,6.206,4.702,12.017,4.702c5.505,0,10.236-2.146,10.236-7.476
			C47.559,10.47,41.105,10.09,37.118,9.812z"/>
		<path fill="#FFFFFF" d="M67.111,9.316l9.112-8.732H72.47L59.401,13.317V0.584h-3.052V23.48h3.052v-6.761l5.505-5.374l9.316,12.134
			h3.928L67.111,9.316z"/>
		<path fill="#FFFFFF" d="M94.081,2.804V0.073c-6.381,0.701-11.2,5.753-11.2,11.915c0,6.235,4.819,11.317,11.2,12.017V21.26
			c-4.614-0.686-8.017-4.585-8.017-9.272C86.064,7.345,89.466,3.49,94.081,2.804z M97.132,0.088v2.731
			c4.6,0.715,8.002,4.556,8.002,9.17c0,4.673-3.402,8.542-8.002,9.257v2.745c6.337-0.715,11.2-5.782,11.2-12.003
			C108.332,5.855,103.47,0.803,97.132,0.088z"/>
		<path fill="#FFFFFF" d="M134.718,0.584V18.15h-0.044L120.13,0.584h-2.76V23.48h3.037V5.914h0.044l14.544,17.566h2.774V0.584
			H134.718z"/>
		<path fill="#FFFFFF" d="M145.713,0.584v2.701h20.822V0.584H145.713z M154.62,23.48h3.052V5.97h-3.052V23.48z"/>
	</g>
	<g>
		<g>
			<path fill="#FFFFFF" d="M4.479,34.302H3.561l-2.984,6.843h0.89l0.703-1.65h3.701l0.703,1.65h0.875L4.479,34.302z M2.499,38.735
				l1.406-3.328c0.043-0.1,0.072-0.172,0.115-0.273c0.029,0.1,0.057,0.172,0.1,0.273l1.42,3.328H2.499z"/>
			<path fill="#FFFFFF" d="M11.853,38.377c0.961-0.172,1.822-0.746,1.822-2.008c0-1.564-1.32-2.066-2.554-2.066H8.439v6.843h0.818
				v-2.697h1.635l2.252,2.697h1.019L11.853,38.377z M9.257,37.659v-2.582h1.894c0.832,0,1.693,0.258,1.693,1.291
				c0,1.019-0.861,1.291-1.693,1.291H9.257z"/>
			<path fill="#FFFFFF" d="M18.482,40.486c-1.42,0-2.955-0.889-2.941-2.712c0.014-1.965,1.492-2.812,2.912-2.812
				c0.646,0,1.291,0.158,1.793,0.502v-0.832c-0.588-0.301-1.248-0.459-1.937-0.459c-1.779,0-3.587,1.22-3.601,3.601
				c-0.014,2.281,1.879,3.486,3.601,3.486c0.732,0,1.42-0.158,1.98-0.459v-0.818C19.816,40.313,19.185,40.486,18.482,40.486z"/>
			<path fill="#FFFFFF" d="M26.458,34.302v3.013h-4.075v-3.013h-0.818v6.843h0.818v-3.041h4.075v3.041h0.818v-6.843H26.458z"/>
			<path fill="#FFFFFF" d="M29.084,34.302v6.843h0.818v-6.843H29.084z"/>
			<path fill="#FFFFFF" d="M30.935,34.302v0.775h2.41v6.069h0.818v-6.069h2.41v-0.775H30.935z"/>
			<path fill="#FFFFFF" d="M38.438,40.371V38.09h3.501v-0.789h-3.501v-2.224h3.802v-0.775h-4.62v6.843h4.677v-0.775H38.438z"/>
			<path fill="#FFFFFF" d="M46.888,40.486c-1.42,0-2.955-0.889-2.941-2.712c0.014-1.965,1.492-2.812,2.912-2.812
				c0.646,0,1.291,0.158,1.779,0.502v-0.832c-0.574-0.301-1.234-0.459-1.922-0.459c-1.779,0-3.587,1.22-3.601,3.601
				c-0.014,2.281,1.865,3.486,3.587,3.486c0.732,0,1.42-0.158,1.994-0.459v-0.818C48.222,40.313,47.591,40.486,46.888,40.486z"/>
			<path fill="#FFFFFF" d="M49.198,34.302v0.775h2.41v6.069h0.832v-6.069h2.41v-0.775H49.198z"/>
			<path fill="#FFFFFF" d="M60.704,34.302v4.304c0,1.392-0.861,1.879-2.023,1.879c-1.191,0-2.052-0.488-2.052-1.879v-4.304h-0.818
				v4.333c0,1.965,1.334,2.625,2.869,2.625c1.506,0,2.855-0.66,2.855-2.625v-4.333H60.704z"/>
			<path fill="#FFFFFF" d="M66.672,38.377c0.976-0.172,1.836-0.746,1.836-2.008c0-1.564-1.334-2.066-2.568-2.066h-2.683v6.843h0.818
				v-2.697h1.65l2.238,2.697h1.033L66.672,38.377z M64.075,37.659v-2.582h1.908c0.818,0,1.693,0.258,1.693,1.291
				c0,1.019-0.875,1.291-1.693,1.291H64.075z"/>
			<path fill="#FFFFFF" d="M70.89,40.371V38.09h3.501v-0.789H70.89v-2.224h3.802v-0.775h-4.62v6.843h4.677v-0.775H70.89z"/>
			<path fill="#FFFFFF" d="M83.271,39.969c0.459-0.574,0.674-1.306,0.674-2.023h-0.818c0.014,0.56-0.129,1.076-0.43,1.492
				l-1.851-1.722c0.76-0.387,1.894-0.99,1.894-2.037c0-0.89-0.732-1.506-1.851-1.506c-1.191,0-2.123,0.789-2.123,1.765
				c0,0.617,0.373,1.177,0.818,1.621l0.014,0.014c-0.617,0.359-1.449,0.99-1.449,1.937c0,1.004,0.832,1.75,2.31,1.75
				c0.99,0,1.779-0.301,2.353-0.789l0.732,0.674h0.99L83.271,39.969z M79.57,35.952c0-0.559,0.516-1.033,1.32-1.033
				c0.66,0,1.047,0.33,1.047,0.818c0,0.689-1.019,1.191-1.636,1.478C79.929,36.856,79.57,36.426,79.57,35.952z M80.517,40.514
				c-1.004,0-1.535-0.387-1.535-1.047c0-0.66,0.646-1.105,1.176-1.377l2.066,1.865C81.794,40.299,81.205,40.514,80.517,40.514z"/>
			<path fill="#FFFFFF" d="M91.234,40.486c-1.42,0-2.955-0.889-2.941-2.712c0.014-1.965,1.492-2.812,2.912-2.812
				c0.646,0,1.291,0.158,1.779,0.502v-0.832c-0.574-0.301-1.234-0.459-1.923-0.459c-1.779,0-3.587,1.22-3.601,3.601
				c-0.014,2.281,1.865,3.486,3.587,3.486c0.732,0,1.42-0.158,1.994-0.459v-0.818C92.568,40.313,91.937,40.486,91.234,40.486z"/>
			<path fill="#FFFFFF" d="M97.317,34.173c-2.41,0-3.587,1.779-3.587,3.544c0,1.779,1.176,3.544,3.587,3.544
				c2.396,0,3.572-1.765,3.572-3.544C100.889,35.952,99.713,34.173,97.317,34.173z M97.317,40.486c-1.865,0-2.755-1.349-2.755-2.769
				c0-1.406,0.889-2.754,2.755-2.754c1.851,0,2.74,1.349,2.74,2.754C100.057,39.137,99.168,40.486,97.317,40.486z"/>
			<path fill="#FFFFFF" d="M107.13,34.302v5.466l-4.132-5.466h-0.76v6.843h0.818v-5.48l4.132,5.48h0.76v-6.843H107.13z"/>
			<path fill="#FFFFFF" d="M110.171,35.952c0-0.732,0.674-0.99,1.578-0.99c0.703-0.014,1.463,0.186,2.008,0.531v-0.818
				c-0.545-0.316-1.32-0.502-2.066-0.502c-1.248,0-2.353,0.588-2.353,1.822c0,2.396,4.089,1.636,4.089,3.472
				c0,0.775-0.818,1.019-1.765,1.019c-0.789,0-1.564-0.187-2.296-0.631v0.818c0.66,0.373,1.463,0.588,2.353,0.588
				c1.306,0.014,2.539-0.488,2.539-1.851C114.26,36.942,110.171,37.688,110.171,35.952z"/>
			<path fill="#FFFFFF" d="M114.648,34.302v0.775h2.41v6.069h0.818v-6.069h2.41v-0.775H114.648z"/>
			<path fill="#FFFFFF" d="M124.748,38.377c0.961-0.172,1.822-0.746,1.822-2.008c0-1.564-1.32-2.066-2.554-2.066h-2.683v6.843h0.818
				v-2.697h1.65l2.238,2.697h1.019L124.748,38.377z M122.151,37.659v-2.582h1.894c0.832,0,1.693,0.258,1.693,1.291
				c0,1.019-0.861,1.291-1.693,1.291H122.151z"/>
			<path fill="#FFFFFF" d="M132.954,34.302v4.304c0,1.392-0.861,1.879-2.037,1.879s-2.037-0.488-2.037-1.879v-4.304h-0.818v4.333
				c0,1.965,1.334,2.625,2.855,2.625s2.869-0.66,2.869-2.625v-4.333H132.954z"/>
			<path fill="#FFFFFF" d="M138.822,40.486c-1.42,0-2.955-0.889-2.941-2.712c0.014-1.965,1.492-2.812,2.912-2.812
				c0.646,0,1.291,0.158,1.779,0.502v-0.832c-0.574-0.301-1.234-0.459-1.922-0.459c-1.779,0-3.587,1.22-3.601,3.601
				c-0.014,2.281,1.865,3.486,3.587,3.486c0.732,0,1.42-0.158,1.994-0.459v-0.818C140.156,40.313,139.525,40.486,138.822,40.486z"/>
			<path fill="#FFFFFF" d="M141.146,34.302v0.775h2.396v6.069h0.832v-6.069h2.41v-0.775H141.146z"/>
			<path fill="#FFFFFF" d="M147.817,34.302v6.843h0.818v-6.843H147.817z"/>
			<path fill="#FFFFFF" d="M153.57,34.173c-2.396,0-3.587,1.779-3.587,3.544c0,1.779,1.191,3.544,3.587,3.544
				c2.396,0,3.572-1.765,3.572-3.544C157.143,35.952,155.966,34.173,153.57,34.173z M153.57,40.486
				c-1.865,0-2.755-1.349-2.755-2.769c0-1.406,0.889-2.754,2.755-2.754c1.851,0,2.74,1.349,2.74,2.754
				C156.311,39.137,155.421,40.486,153.57,40.486z"/>
			<path fill="#FFFFFF" d="M163.383,34.302v5.466l-4.132-5.466h-0.76v6.843h0.818v-5.48l4.132,5.48h0.76v-6.843H163.383z"/>
		</g>
	</g>
</g>
</svg>
